<?xml version="1.0" standalone="no"?>
<!DOCTYPE svg PUBLIC "-//W3C//DTD SVG 20010904//EN"
 "http://www.w3.org/TR/2001/REC-SVG-20010904/DTD/svg10.dtd">
<svg version="1.0" xmlns="http://www.w3.org/2000/svg"
 width="750.000000pt" height="750.000000pt" viewBox="0 0 750.000000 750.000000"
 preserveAspectRatio="xMidYMid meet">
<metadata>
Created by potrace 1.11, written by Peter Selinger 2001-2013
</metadata>
<g transform="translate(0.000000,750.000000) scale(0.100000,-0.100000)"
fill="#000000" stroke="none">
<path d="M3378 7444 c142 -161 215 -367 191 -539 -12 -87 -14 -95 -51 -177
-29 -63 -33 -67 -57 -62 -164 38 -409 260 -512 464 l-33 65 -10 -40 c-5 -22
-9 -116 -9 -210 0 -184 14 -266 68 -383 14 -30 24 -56 23 -57 -2 -1 -30 -7
-63 -14 -224 -46 -536 -153 -762 -261 l-142 -68 -27 40 c-136 196 -593 451
-1153 642 -166 57 -471 149 -476 144 -10 -10 -77 -303 -91 -402 -24 -159 -14
-445 19 -611 55 -268 151 -533 303 -833 52 -102 94 -189 94 -194 0 -4 -18 -37
-40 -73 -62 -102 -158 -297 -216 -441 -99 -248 -168 -523 -200 -799 -23 -197
-15 -603 15 -797 83 -533 300 -1030 647 -1478 114 -148 417 -450 564 -564 469
-362 991 -600 1550 -710 279 -54 360 -61 740 -61 286 0 380 3 485 18 695 96
1297 350 1835 776 127 100 416 390 519 521 387 489 620 1055 681 1653 19 180
8 606 -19 774 -45 277 -131 562 -245 811 -54 116 -165 321 -211 390 -14 20
-25 42 -25 48 0 6 25 57 56 114 116 213 228 481 288 689 92 316 114 588 70
871 -16 104 -70 337 -83 358 -6 10 -53 -1 -210 -48 -749 -226 -1286 -509
-1447 -763 l-27 -44 -111 52 c-272 129 -625 236 -956 289 -51 9 -94 17 -96 19
-2 2 8 48 23 103 24 91 26 116 27 299 1 192 -6 268 -23 249 -4 -5 -16 -29 -25
-54 -32 -83 -244 -410 -265 -410 -5 0 -12 27 -15 61 -11 96 -52 225 -103 329
-55 110 -151 216 -245 269 -66 37 -178 77 -245 87 l-47 7 42 -49z m3677 -780
c19 -131 19 -367 -1 -503 -38 -265 -141 -568 -295 -873 l-44 -87 -105 92 c-58
51 -120 104 -139 120 l-33 28 37 87 c82 189 115 325 115 467 0 121 -30 265
-55 265 -7 0 -74 -20 -148 -44 -228 -76 -413 -166 -499 -244 l-37 -33 -58 39
c-32 21 -102 65 -155 96 -54 31 -98 61 -98 66 0 5 22 35 49 68 174 209 631
443 1241 635 l175 56 17 -67 c10 -37 24 -113 33 -168z m-6350 85 c549 -178
949 -381 1135 -575 33 -34 60 -66 60 -71 0 -4 -19 -19 -43 -32 -23 -13 -93
-57 -155 -98 l-113 -74 -69 46 c-38 25 -116 68 -172 95 -102 48 -387 150 -420
150 -19 0 -43 -93 -54 -206 -12 -134 29 -332 106 -508 l39 -88 -24 -33 c-14
-17 -60 -61 -102 -97 -43 -36 -89 -78 -102 -92 -14 -14 -30 -26 -36 -26 -6 0
-44 66 -83 148 -263 543 -336 981 -240 1432 11 52 22 98 24 102 3 4 17 3 32
-2 15 -5 113 -37 217 -71z m1412 -1774 c218 -41 443 -161 638 -339 l70 -64
-110 29 c-251 66 -487 77 -705 34 -199 -40 -266 -32 -337 39 -52 52 -63 98
-38 162 35 93 162 151 331 153 40 1 108 -6 151 -14z m3528 -15 c75 -29 154
-103 156 -146 3 -79 -13 -120 -63 -157 -71 -52 -157 -60 -298 -26 -58 14 -135
22 -245 26 -180 6 -292 -7 -481 -56 l-109 -29 75 70 c89 82 250 193 352 241
82 39 215 83 292 97 88 16 253 5 321 -20z m-3420 -515 c117 -24 313 -81 395
-115 205 -85 353 -245 406 -440 25 -93 23 -278 -5 -385 -74 -284 -321 -568
-816 -940 -82 -62 -202 -148 -265 -191 -148 -101 -247 -198 -288 -284 -18 -38
-40 -111 -52 -175 -12 -61 -24 -126 -28 -145 l-8 -35 -47 60 c-66 82 -151 260
-181 375 -34 131 -46 225 -49 373 -1 70 -5 127 -8 127 -13 0 -207 -209 -254
-273 -57 -77 -59 -77 -96 22 -41 111 -51 167 -56 313 -6 171 2 242 58 491 23
97 39 182 37 188 -2 6 -44 -29 -94 -77 -93 -92 -167 -196 -250 -348 l-49 -88
-23 53 c-125 283 -85 604 110 886 63 92 221 244 323 312 211 141 527 264 784
306 109 18 346 13 456 -10z m3427 10 c195 -29 360 -83 573 -185 369 -178 613
-444 697 -760 30 -116 31 -310 0 -422 -22 -82 -60 -178 -71 -178 -3 0 -24 33
-45 73 -76 140 -150 243 -244 340 -53 53 -99 97 -103 97 -4 0 1 -37 12 -82 78
-347 83 -376 83 -553 1 -192 -13 -270 -68 -389 l-31 -69 -60 79 c-61 82 -231
264 -246 264 -5 0 -9 -52 -9 -116 0 -291 -80 -562 -221 -748 -62 -81 -57 -85
-87 87 -41 237 -95 307 -412 529 -527 370 -852 688 -965 941 -66 150 -90 342
-61 487 27 135 74 220 175 320 109 108 208 160 433 224 258 74 446 92 650 61z
m-2306 -1925 c44 -41 107 -95 142 -120 l63 -45 -4 -101 c-8 -166 -47 -214
-174 -214 -73 0 -123 27 -123 66 0 41 -18 64 -48 64 -38 0 -52 -17 -52 -62 0
-105 86 -168 227 -168 86 0 147 21 195 67 l27 26 40 -35 c23 -19 58 -40 80
-46 48 -15 153 -15 203 -2 74 21 128 89 128 163 0 40 -15 57 -50 57 -34 0 -50
-17 -50 -52 0 -32 -28 -65 -65 -74 -47 -12 -143 1 -173 22 -39 29 -61 102 -62
205 l0 86 58 39 c72 49 251 227 321 321 l55 71 50 -25 c318 -159 512 -498 467
-817 -25 -179 -97 -315 -240 -456 -175 -172 -379 -264 -649 -292 -340 -36
-675 82 -899 315 -216 225 -280 533 -168 808 70 173 223 336 409 435 l58 32
78 -97 c43 -53 113 -130 156 -171z"/>
<path d="M2180 4144 c-94 -25 -161 -64 -233 -135 -201 -200 -204 -508 -7 -714
192 -200 508 -209 708 -21 219 205 225 525 15 735 -130 129 -313 180 -483 135z
m151 -202 c144 -75 155 -272 21 -367 -40 -27 -51 -30 -122 -30 -71 0 -82 3
-122 30 -135 95 -121 297 25 370 69 34 129 33 198 -3z m195 -387 c49 -20 70
-71 50 -119 -25 -59 -96 -82 -156 -51 -36 19 -50 43 -50 87 1 39 16 62 56 83
36 19 56 19 100 0z"/>
<path d="M4983 4146 c-249 -61 -422 -317 -384 -566 20 -129 66 -214 163 -306
199 -188 516 -179 708 21 197 206 194 514 -9 716 -126 126 -306 176 -478 135z
m163 -212 c130 -80 132 -269 6 -359 -40 -27 -51 -30 -122 -30 -71 0 -82 3
-122 30 -95 67 -122 194 -62 292 63 102 196 132 300 67z m179 -378 c18 -8 38
-23 44 -34 14 -26 14 -77 1 -103 -13 -24 -61 -49 -95 -49 -34 0 -82 25 -95 49
-14 27 -12 82 4 103 16 22 65 48 89 48 10 0 33 -6 52 -14z"/>
</g>
</svg>
